<?xml version="1.0" standalone="no"?>
<!DOCTYPE svg PUBLIC "-//W3C//DTD SVG 20010904//EN"
 "http://www.w3.org/TR/2001/REC-SVG-20010904/DTD/svg10.dtd">
<svg version="1.0" xmlns="http://www.w3.org/2000/svg"
 width="435.000000pt" height="435.000000pt" viewBox="0 0 435.000000 435.000000"
 preserveAspectRatio="xMidYMid meet">
<metadata>
Created by potrace 1.14, written by Peter Selinger 2001-2017
</metadata>
<g transform="translate(0.000000,435.000000) scale(0.100000,-0.100000)"
fill="#000000" stroke="none">
<path d="M3000 4339 c-47 -8 -81 -23 -105 -46 -11 -10 -78 -70 -150 -133 -71
-63 -137 -122 -145 -130 -24 -22 -243 -216 -389 -345 -19 -16 -41 -37 -50 -46
-9 -8 -77 -69 -151 -135 -74 -65 -137 -121 -140 -124 -3 -3 -45 -41 -95 -85
-102 -91 -157 -140 -193 -172 -14 -13 -28 -23 -32 -23 -3 0 -44 40 -91 89
-215 226 -643 661 -651 661 -4 0 -8 -321 -8 -713 l0 -714 -62 -54 c-35 -29
-91 -81 -125 -115 -52 -52 -62 -67 -68 -108 -10 -67 0 -114 33 -155 49 -60 91
-79 185 -80 l37 -1 0 -650 0 -650 210 0 210 0 1 23 c0 12 0 304 -1 650 l-1
627 286 0 c157 0 284 -3 282 -7 -3 -5 -30 -69 -62 -143 -31 -74 -63 -148 -70
-165 -8 -16 -47 -109 -88 -205 -41 -96 -165 -387 -276 -646 -221 -519 -224
-530 -182 -617 23 -47 69 -89 118 -108 66 -25 172 0 226 53 21 20 86 78 167
148 14 12 39 34 57 50 27 25 233 207 467 414 38 34 79 70 90 81 12 11 57 52
101 90 44 39 96 84 115 101 19 17 102 91 184 164 l149 133 368 -374 c202 -206
370 -371 374 -367 4 4 7 320 7 704 0 640 2 697 17 713 9 9 50 45 91 81 97 85
106 96 130 145 23 47 26 106 8 156 -31 91 -99 134 -220 138 l-26 1 0 593 c-1
325 -1 618 -1 650 l-1 57 -210 0 -210 0 2 -650 3 -650 -22 -1 c-30 -1 -507 -1
-532 0 -16 1 35 126 329 814 192 446 350 828 353 847 16 132 -113 254 -243
229z m84 -158 c28 -30 23 -62 -21 -165 -24 -56 -48 -110 -52 -121 -5 -11 -21
-46 -35 -78 -14 -32 -26 -60 -26 -62 0 -2 -12 -30 -26 -62 -14 -32 -29 -67
-34 -78 -4 -11 -15 -36 -23 -55 -9 -19 -72 -168 -142 -330 -135 -317 -242
-565 -312 -725 -48 -111 -52 -146 -23 -175 19 -19 33 -20 373 -20 l352 0 0
-286 0 -286 -65 -59 -65 -59 -144 147 c-235 241 -954 982 -1066 1099 -22 23
-59 61 -83 86 l-42 44 172 155 c95 84 188 167 207 184 18 16 46 41 61 55 15
14 55 50 90 80 35 30 73 64 84 75 17 16 343 307 505 450 19 16 59 53 90 81
115 104 136 122 156 126 28 6 51 -1 69 -21z m-1849 -1372 c-10 -15 -25 -10
-19 6 4 8 10 12 15 9 5 -3 7 -10 4 -15z m1022 -1023 c233 -237 423 -432 422
-435 0 -3 -51 -50 -112 -103 -62 -54 -123 -108 -137 -120 -14 -13 -126 -113
-250 -223 -124 -110 -227 -202 -230 -205 -3 -3 -41 -37 -85 -75 -44 -39 -86
-76 -93 -83 -116 -109 -430 -380 -449 -388 -32 -14 -56 -8 -79 17 -23 26 -20
67 9 131 13 29 43 98 66 153 23 55 51 118 61 140 15 34 53 122 81 190 4 11
120 281 257 599 166 389 247 588 244 604 -10 52 -23 54 -397 54 l-345 -1 -1
102 c0 56 -1 183 -1 283 l-2 181 60 56 59 57 249 -253 c137 -138 440 -445 673
-681z m1380 498 c32 -43 16 -72 -85 -158 l-22 -19 1 94 c0 52 3 98 6 103 9 14
86 -1 100 -20z m-2837 -149 l0 -95 -38 0 c-50 0 -82 23 -82 59 0 21 14 41 54
80 30 28 57 51 60 51 3 0 6 -43 6 -95z m2318 -625 c1 -27 -1 -29 -15 -15 -8 9
-12 22 -9 30 9 25 23 17 24 -15z"/>
</g>
</svg>
