<?xml version="1.0" standalone="no"?>
<!DOCTYPE svg PUBLIC "-//W3C//DTD SVG 20010904//EN"
 "http://www.w3.org/TR/2001/REC-SVG-20010904/DTD/svg10.dtd">
<svg version="1.0" xmlns="http://www.w3.org/2000/svg"
 width="512.000000pt" height="512.000000pt" viewBox="0 0 512.000000 512.000000"
 preserveAspectRatio="xMidYMid meet">
<metadata>
Created by potrace 1.14, written by Peter Selinger 2001-2017
</metadata>
<g transform="translate(0.000000,512.000000) scale(0.100000,-0.100000)"
fill="#000000" stroke="none">
<path d="M0 2560 l0 -2560 2560 0 2560 0 0 2560 0 2560 -2560 0 -2560 0 0
-2560z m2545 1505 l-30 -25 -364 -2 -364 -3 -25 -105 c-13 -58 -54 -240 -92
-404 -68 -296 -69 -299 -105 -335 -28 -27 -36 -31 -31 -16 3 11 51 216 106
455 55 239 102 441 105 448 3 9 96 12 417 12 l413 -1 -30 -24z m1546 18 c0 -5
-64 -288 -143 -630 l-143 -623 -28 0 c-30 0 -30 -7 -1 110 7 30 65 278 128
550 63 272 117 507 121 523 l7 27 -249 0 -249 0 -128 -567 c-161 -716 -142
-643 -171 -643 -14 0 -25 4 -25 8 0 4 63 286 140 627 77 340 140 620 140 622
0 7 600 3 601 -4z m-1306 -691 l33 -503 -23 -52 -23 -52 -6 65 c-3 36 -22 312
-42 614 l-36 549 23 18 24 18 8 -77 c4 -42 23 -303 42 -580z m-325 604 c0 -2
-161 -147 -357 -323 -408 -364 -429 -383 -436 -383 -2 0 17 59 44 131 27 72
65 197 85 278 56 231 61 247 90 260 15 7 92 11 202 12 97 0 213 6 257 14 89
14 115 17 115 11z m193 -118 c-5 -46 -7 -108 -7 -138 1 -52 20 -318 29 -405 2
-22 7 -85 10 -140 4 -55 16 -156 28 -225 15 -87 21 -174 22 -285 2 -141 9
-285 20 -410 4 -40 9 -112 21 -275 14 -209 21 -258 44 -304 41 -86 139 -109
216 -51 32 25 56 80 82 195 45 189 63 270 87 370 14 63 38 162 52 220 18 74
25 130 24 188 l-1 82 209 0 210 0 -44 -92 c-23 -51 -46 -115 -51 -143 -4 -27
-8 -54 -10 -60 -3 -11 -43 -228 -48 -260 -2 -11 -6 -27 -9 -35 -8 -20 -78
-313 -111 -460 -112 -506 -105 -482 -142 -499 -17 -7 -131 -11 -354 -11 -317
0 -331 1 -350 20 -15 15 -20 33 -20 69 0 28 -7 130 -15 228 -8 98 -19 237 -25
308 -19 239 -41 510 -45 560 -3 28 -12 147 -20 265 -54 793 -60 849 -81 892
-17 32 -61 58 -101 58 l-28 0 28 -23 c22 -17 30 -33 33 -67 6 -58 92 -1126
144 -1790 22 -283 43 -530 46 -547 l5 -33 424 0 423 0 12 52 c17 82 350 1531
356 1551 6 20 54 24 54 4 0 -7 -25 -118 -55 -247 -30 -129 -55 -239 -55 -243
0 -4 10 3 23 16 35 38 194 177 201 177 4 0 23 17 41 38 19 20 35 34 35 30 0
-5 9 1 20 12 11 11 26 20 33 20 6 -1 1 -7 -13 -16 -19 -11 -20 -14 -5 -10 31
8 97 9 133 2 22 -4 31 -3 27 4 -3 5 -1 10 4 10 16 0 13 -16 -4 -30 -11 -9 -15
-9 -15 -1 0 7 -5 9 -10 6 -6 -4 -8 -10 -5 -15 3 -4 -95 -97 -217 -206 -123
-109 -238 -211 -256 -228 l-34 -31 8 40 c3 22 4 37 0 34 -4 -4 -8 -22 -10 -40
-2 -19 -6 -41 -10 -49 -5 -12 -216 -918 -216 -927 0 -2 -189 -3 -419 -3 l-419
0 -279 -247 c-566 -503 -514 -462 -602 -470 -47 -4 -64 0 -111 24 -77 39 -115
102 -114 187 0 57 22 111 358 896 197 459 360 843 363 853 5 15 -5 17 -119 17
l-124 0 -138 -592 c-75 -326 -142 -610 -147 -630 l-10 -38 -295 0 c-277 0
-295 1 -290 18 3 9 66 283 141 607 74 325 137 600 140 613 l5 22 -152 0 c-176
0 -220 13 -265 81 -26 39 -40 109 -22 109 6 0 7 -5 4 -10 -4 -7 3 -8 22 -4 15
4 30 11 32 17 2 5 7 3 12 -4 6 -10 9 -11 9 -1 0 6 5 12 11 12 6 0 9 -7 6 -14
-4 -11 -1 -13 11 -9 14 6 15 4 4 -9 -9 -11 -10 -18 -2 -23 5 -3 10 -1 10 6 0
7 6 4 14 -7 13 -17 30 -19 175 -22 89 -2 161 -2 161 0 0 13 120 519 125 527 3
6 18 19 33 30 28 19 26 13 -186 -902 -117 -507 -216 -937 -219 -955 l-6 -32
241 0 240 0 11 50 c6 27 60 260 120 517 179 761 409 1746 416 1781 9 45 -1 40
-28 -15 -47 -93 -107 -324 -202 -768 -40 -192 -82 -375 -99 -440 -26 -99 -78
-322 -176 -750 -12 -49 -29 -130 -39 -179 -27 -135 -28 -136 -203 -136 -193 0
-189 -3 -162 127 12 54 62 276 112 493 50 217 102 447 117 510 14 63 32 140
41 170 21 77 72 298 89 385 3 17 8 72 12 123 l6 94 516 459 c284 252 522 459
529 459 10 0 11 -18 5 -82z m1068 -259 c79 -78 97 -119 53 -119 -20 0 -17 -20
4 -21 11 0 12 -2 4 -6 -10 -4 -10 -8 -1 -19 8 -10 9 -17 0 -28 -6 -7 -9 -26
-6 -42 4 -16 -3 -83 -15 -149 -11 -66 -26 -147 -31 -180 -6 -33 -8 -95 -5
-137 l6 -78 -205 0 c-113 0 -205 2 -205 6 0 3 16 35 35 72 29 58 84 236 124
407 22 93 84 285 93 285 4 0 8 6 8 13 0 34 23 35 55 4 22 -21 30 -34 22 -39
-6 -4 -8 -10 -4 -15 5 -4 11 -2 15 4 4 7 21 -3 45 -27 24 -25 33 -40 25 -43
-7 -2 -9 -8 -5 -13 4 -5 12 -2 17 6 7 11 -10 35 -72 97 -57 57 -79 86 -75 97
6 15 9 15 34 -1 16 -10 53 -43 84 -74z m-861 -1366 c40 -592 36 -563 66 -563
13 0 24 2 24 4 0 2 50 223 110 491 61 267 110 493 110 501 0 9 11 14 31 14 29
0 31 -2 24 -27 -8 -35 -211 -926 -220 -971 -9 -46 -30 -62 -79 -62 -83 0 -76
-30 -112 506 -18 264 -35 506 -38 540 l-5 61 30 -28 30 -28 29 -438z m-1938
250 c-6 -3 -9 -10 -6 -16 4 -7 1 -7 -7 1 -12 11 -12 14 1 22 8 5 17 6 20 3 3
-3 -1 -8 -8 -10z m79 0 c13 -16 12 -17 -3 -4 -10 7 -18 15 -18 17 0 8 8 3 21
-13z m3048 -9 c-15 -18 -22 -13 -13 10 3 9 10 13 16 10 5 -3 4 -12 -3 -20z
m151 16 c0 -5 -2 -10 -4 -10 -3 0 -8 5 -11 10 -3 6 -1 10 4 10 6 0 11 -4 11
-10z"/>
<path d="M2200 3468 c0 -2 -56 -239 -124 -528 -68 -289 -122 -526 -121 -528 1
-1 78 -3 171 -3 134 0 174 -3 192 -15 l24 -16 -6 54 c-4 29 -22 251 -41 493
-46 582 -41 545 -71 545 -13 0 -24 -1 -24 -2z"/>
<path d="M4095 2449 c-4 -6 -5 -12 -2 -15 2 -3 7 2 10 11 7 17 1 20 -8 4z"/>
<path d="M900 2441 c0 -5 7 -12 16 -15 14 -5 15 -4 4 9 -14 17 -20 19 -20 6z"/>
<path d="M1960 1439 c-206 -484 -376 -893 -378 -910 -5 -42 30 -79 74 -79 23
0 45 10 71 33 70 60 668 589 691 612 l24 22 -47 584 c-25 321 -49 591 -53 600
-5 11 -139 -291 -382 -862z"/>
<path d="M3651 2164 c0 -11 3 -14 6 -6 3 7 2 16 -1 19 -3 4 -6 -2 -5 -13z"/>
<path d="M3631 2074 c0 -11 3 -14 6 -6 3 7 2 16 -1 19 -3 4 -6 -2 -5 -13z"/>
<path d="M3650 3660 c0 -5 5 -10 10 -10 6 0 10 5 10 10 0 6 -4 10 -10 10 -5 0
-10 -4 -10 -10z"/>
<path d="M3730 3580 c0 -5 5 -10 10 -10 6 0 10 5 10 10 0 6 -4 10 -10 10 -5 0
-10 -4 -10 -10z"/>
</g>
</svg>
